<svg width="320" height="281" viewBox="0 0 320 281" fill="none" xmlns="http://www.w3.org/2000/svg">
<path d="M177.407 277C239.673 277 290.149 268.071 290.149 257.057C290.149 246.043 239.673 237.114 177.407 237.114C115.141 237.114 64.6651 246.043 64.6651 257.057C64.6651 268.071 115.141 277 177.407 277Z" fill="#3F3D56"/>
<path d="M102.377 127.931C109.543 117.265 112.655 104.381 111.148 91.6152C109.64 78.8492 103.614 67.0467 94.1612 58.3481C84.7086 49.6495 72.4557 44.6307 59.6245 44.2019C46.7933 43.7731 34.2335 47.9627 24.2227 56.0109C14.2119 64.0591 7.413 75.433 5.05894 88.07C2.70488 100.707 4.95154 113.77 11.3915 124.891C17.8315 136.012 28.0383 144.453 40.161 148.685C52.2838 152.917 65.5197 152.658 77.4686 147.957C78.2432 150.725 79.6914 153.258 81.6835 155.329C83.6756 157.4 86.1494 158.944 88.8835 159.822C91.6176 160.701 94.5266 160.887 97.3501 160.364C100.174 159.841 102.824 158.624 105.063 156.824C107.302 155.024 109.06 152.696 110.18 150.049C111.3 147.402 111.747 144.518 111.481 141.655C111.215 138.792 110.244 136.04 108.655 133.645C107.067 131.25 104.91 129.287 102.377 127.931V127.931Z" fill="#F7F7F7"/>
<path d="M89.7086 87.1762H25.8473V92.2244H89.7086V87.1762Z" fill="white"/>
<path d="M89.7086 95.5899H25.8473V100.638H89.7086V95.5899Z" fill="white"/>
<path d="M89.7086 104.004H25.8473V109.052H89.7086V104.004Z" fill="white"/>
<path d="M216.623 87.9454C209.457 77.2795 206.345 64.3952 207.852 51.6292C209.36 38.8632 215.386 27.0607 224.839 18.3621C234.291 9.66348 246.544 4.64472 259.376 4.21594C272.207 3.78715 284.767 7.97674 294.777 16.0249C304.788 24.0731 311.587 35.447 313.941 48.084C316.295 60.721 314.049 73.7843 307.609 84.9049C301.169 96.0256 290.962 104.467 278.839 108.699C266.716 112.931 253.48 112.672 241.531 107.971C240.757 110.739 239.309 113.272 237.317 115.343C235.324 117.414 232.851 118.958 230.116 119.836C227.382 120.715 224.473 120.901 221.65 120.378C218.826 119.855 216.177 118.638 213.937 116.838C211.698 115.038 209.94 112.71 208.82 110.063C207.7 107.416 207.253 104.532 207.519 101.669C207.785 98.8059 208.756 96.0539 210.345 93.6589C211.933 91.264 214.09 89.3009 216.623 87.9454V87.9454Z" fill="#F7F7F7"/>
<path d="M229.291 52.2384L293.153 52.2384V47.1902L229.291 47.1902V52.2384Z" fill="white"/>
<path d="M229.291 60.6521L293.153 60.6521V55.6039L229.291 55.6039V60.6521Z" fill="white"/>
<path d="M229.291 69.0658L293.153 69.0658V64.0176L229.291 64.0176V69.0658Z" fill="white"/>
<path d="M123.398 235.078C119.397 229.124 117.66 221.931 118.502 214.804C119.343 207.677 122.708 201.087 127.985 196.231C133.262 191.375 140.103 188.573 147.266 188.333C154.43 188.094 161.442 190.433 167.031 194.926C172.62 199.419 176.415 205.769 177.73 212.824C179.044 219.879 177.79 227.173 174.194 233.381C170.599 239.59 164.901 244.302 158.133 246.665C151.365 249.027 143.975 248.883 137.304 246.258C136.872 247.804 136.063 249.218 134.951 250.374C133.839 251.53 132.458 252.392 130.931 252.883C129.405 253.373 127.781 253.477 126.205 253.185C124.628 252.893 123.149 252.214 121.899 251.209C120.649 250.204 119.667 248.904 119.042 247.426C118.416 245.948 118.167 244.338 118.315 242.74C118.464 241.142 119.006 239.605 119.893 238.268C120.78 236.931 121.984 235.835 123.398 235.078V235.078Z" fill="#373063"/>
<path d="M136.495 221.115C138.411 221.115 139.964 219.56 139.964 217.642C139.964 215.724 138.411 214.169 136.495 214.169C134.58 214.169 133.027 215.724 133.027 217.642C133.027 219.56 134.58 221.115 136.495 221.115Z" fill="white"/>
<path d="M148.329 221.115C150.244 221.115 151.797 219.56 151.797 217.642C151.797 215.724 150.244 214.169 148.329 214.169C146.413 214.169 144.86 215.724 144.86 217.642C144.86 219.56 146.413 221.115 148.329 221.115Z" fill="white"/>
<path d="M160.162 221.115C162.078 221.115 163.631 219.56 163.631 217.642C163.631 215.724 162.078 214.169 160.162 214.169C158.247 214.169 156.694 215.724 156.694 217.642C156.694 219.56 158.247 221.115 160.162 221.115Z" fill="white"/>
<path d="M151.802 109.902C151.802 109.902 167.278 110.323 169.834 111.254C172.39 112.185 173.532 118.843 173.532 118.843L161.517 122.625L152.529 122.115L145.766 122.594L149.542 112.69L151.802 109.902Z" fill="#2F2E41"/>
<path d="M152.47 104.817C152.47 104.817 153.488 108.755 151.228 111.543C148.968 114.331 160.943 124.266 160.943 124.266L167.26 123.179C167.26 123.179 165.867 111.08 167.737 108.016C169.608 104.952 152.47 104.817 152.47 104.817Z" fill="#9F616A"/>
<path opacity="0.1" d="M152.47 104.817C152.47 104.817 153.488 108.755 151.228 111.543C148.968 114.331 160.943 124.266 160.943 124.266L167.26 123.179C167.26 123.179 165.867 111.08 167.737 108.016C169.608 104.952 152.47 104.817 152.47 104.817Z" fill="black"/>
<path d="M194.481 219.944L180.543 238.452L190.055 244.012L203.146 222.566L194.481 219.944Z" fill="#9F616A"/>
<path d="M184.704 238.764C184.704 238.764 179.572 232.792 179.8 234.124C180.029 235.455 176.148 246.748 179.759 247.84C183.369 248.933 214.331 251.83 214.757 248.329C215.183 244.829 205.52 242.379 205.52 242.379C205.52 242.379 199.78 236.855 198.507 237.416C197.234 237.978 184.704 238.764 184.704 238.764Z" fill="#2F2E41"/>
<path d="M191.354 237.619L202.487 256.61L210.892 251.736L199.666 236.189L191.354 237.619Z" fill="#9F616A"/>
<path d="M208.928 192.438L205.624 197.119C205.624 197.119 189.873 219.024 191.546 220.792C193.219 222.561 200.185 229.245 203.728 227.949C207.271 226.654 219.858 204.266 219.858 204.266L216.575 191.122L208.928 192.438Z" fill="#2F2E41"/>
<path d="M141.078 188.006C141.078 188.006 144.605 194.597 153.545 196.828C162.486 199.06 171.826 203.622 172.159 203.564C172.491 203.507 173.431 203.003 173.66 204.334C173.889 205.666 176.341 207.986 176.341 207.986C176.341 207.986 186.216 241.588 189.988 241.625C193.759 241.661 201.51 238.956 201.671 237.9C201.832 236.844 190.123 202.529 190.008 201.863L188.637 193.874C188.637 193.874 204.123 196.35 205.567 196.787C207.011 197.224 219.858 204.266 219.858 204.266C219.858 204.266 232.954 194.815 220.705 185.27C208.455 175.725 187.4 168.724 187.4 168.724L179.847 166.597L173.264 166.203L172.295 162.481L156.704 163.382L140.433 170.295L141.078 188.006Z" fill="#2F2E41"/>
<path d="M161.654 112.655C168.362 112.655 173.799 107.21 173.799 100.494C173.799 93.7786 168.362 88.3342 161.654 88.3342C154.947 88.3342 149.51 93.7786 149.51 100.494C149.51 107.21 154.947 112.655 161.654 112.655Z" fill="#9F616A"/>
<path d="M150.667 110.268L152.128 110.017C152.128 110.017 154.766 120.188 162.927 121.868C162.927 121.868 166.954 117.038 166.782 116.222C166.61 115.407 169.971 111.059 171.758 113.493C173.545 115.928 171.322 158.81 172.823 159.58C174.325 160.349 177.546 161.166 174.953 164.011C172.361 166.857 162.065 170.685 159.784 169.364C157.504 168.043 152.844 156.849 150.828 153.083C148.813 149.317 145.587 136.505 145.587 136.505C145.587 136.505 141.467 122.477 144.002 119.298C146.537 116.12 150.667 110.268 150.667 110.268Z" fill="#D0CDE1"/>
<path d="M162.29 163.061C162.019 166.048 161.554 169.014 160.899 171.941C160.303 174.322 159.61 175.76 158.818 175.699C156.799 175.548 155.881 178.513 155.408 181.932C154.902 185.56 154.902 189.697 154.625 191.16C154.258 193.092 151.908 194.566 147.212 194.134C144.416 193.815 141.671 193.141 139.045 192.128C132.706 189.82 132.893 171.104 133.954 157.215C134.603 148.703 135.578 142 135.578 142C135.578 142 133.652 136.248 133.036 132.306C132.913 131.587 132.852 130.859 132.852 130.129C132.946 126.686 139.225 117.381 143.019 111.584C146.817 105.788 151.998 110.04 151.998 110.04L150.194 115.489C150.194 115.489 152.989 119.807 153.009 123.916C153.03 128.025 159.7 130.991 162.094 132.98C163.6 134.23 163.563 150.917 162.29 163.061Z" fill="#2F2E41"/>
<path d="M167.563 111.987C167.563 111.987 168.001 112.505 170.005 112.253C172.408 111.95 175.713 112.782 176.48 115.08C177.888 119.293 181.857 136.432 181.857 136.432C181.857 136.432 183.509 156.027 184.252 160.355C184.995 164.682 184.626 168.516 185.359 170.789C186.091 173.062 178.127 166.55 175.192 167.398C172.257 168.245 170.371 157.26 170.74 153.426C171.109 149.592 171.421 145.426 170.403 141.488C169.384 137.551 171.19 127.129 171.122 124.742C171.054 122.354 164.65 116.337 167.563 111.987Z" fill="#2F2E41"/>
<path d="M176.157 172.887C176.157 172.887 189.015 179.911 190.246 189.909C191.477 199.906 173.047 180.228 173.047 180.228L176.157 172.887Z" fill="#9F616A"/>
<path d="M183.497 165.797C183.497 165.797 187.437 185.683 193.575 184.627C199.713 183.57 190.146 164.653 190.146 164.653L183.497 165.797Z" fill="#9F616A"/>
<path d="M204.518 252.491C204.518 252.491 201.375 256.116 200.596 255.565C199.816 255.013 198.024 262.519 199.64 263.955C201.255 265.391 207.479 267.747 207.546 270.134C207.614 272.522 224.305 272.049 224.903 269.547C225.5 267.045 222.809 261.339 220.918 260.293C219.027 259.247 212.035 249.625 212.035 249.625C212.035 249.625 206.559 250.426 204.518 252.491Z" fill="#2F2E41"/>
<path opacity="0.1" d="M174.108 185.049C171.126 182.941 162.8 182.418 155.408 181.932C152.165 181.724 149.101 181.52 146.747 181.189C144.479 180.874 142.439 178.799 140.628 175.707C137.882 171.022 135.663 163.996 133.954 157.215C134.602 148.703 135.577 141.999 135.577 141.999C135.577 141.999 133.652 136.248 133.036 132.306C133.47 131.701 134.03 131.197 134.676 130.828C142.517 127.458 150.003 160.622 150.953 165.826C150.969 165.912 150.982 165.993 150.994 166.063C151.455 168.742 156.436 171.034 160.899 171.941C163.649 172.5 166.206 172.537 167.385 171.81C170.482 169.907 180.003 177.525 180.725 177.741C181.447 177.962 178.392 188.084 174.108 185.049Z" fill="black"/>
<path d="M134.677 128.786C134.677 128.786 128.978 131.481 131.482 144.074C133.986 156.667 139.031 178.077 146.745 179.148C154.46 180.22 169.821 179.975 174.107 183.008C178.392 186.04 181.447 175.918 180.725 175.699C180.003 175.481 170.481 167.866 167.384 169.77C164.288 171.673 151.737 168.35 150.995 164.022C150.252 159.694 142.646 125.358 134.677 128.786Z" fill="#2F2E41"/>
<path d="M175.743 122.747L182.006 137.299C182.006 137.299 182.637 136.984 183.369 139.257C184.102 141.53 184.444 143.527 185.728 145.02C187.011 146.513 192.72 167.808 192.891 168.807C193.063 169.806 185.006 173.249 183.206 170.474C181.405 167.699 175.743 122.747 175.743 122.747Z" fill="#2F2E41"/>
<path d="M154.745 100.325C155.21 100.201 155.279 99.582 155.294 99.0999C155.378 96.5182 156.93 93.869 159.398 93.1174C160.346 92.8574 161.337 92.8027 162.307 92.9571C163.691 93.1418 165.028 93.5883 166.246 94.2729C166.889 94.6348 167.519 95.0707 168.248 95.1812C168.73 95.2542 170.815 95.8612 171.295 95.9466C172.349 96.1344 173.329 97.0789 174.34 96.7274C175.308 96.3912 175.522 95.1364 175.546 94.1109C175.599 91.7747 173.828 88.5412 172.268 86.8032C171.084 85.4842 169.301 84.8754 167.558 84.5588C165.523 84.2313 163.46 84.1057 161.399 84.1837C158.611 84.2335 155.745 84.449 153.23 85.6573C150.715 86.8655 148.603 89.2702 148.482 92.0605C148.457 92.6417 148.517 93.2254 148.468 93.8051C148.349 95.2194 147.599 96.4967 147.247 97.8716C146.996 98.8803 146.958 99.9307 147.137 100.955C147.316 101.979 147.707 102.954 148.285 103.818C149.218 105.193 150.685 106.437 150.631 108.099L152.655 106C152.957 105.769 153.171 105.441 153.261 105.071C153.351 104.701 153.312 104.311 153.149 103.967L152.433 101.169C152.249 100.67 152.227 100.125 152.371 99.6122C153.139 97.7123 153.969 100.533 154.745 100.325Z" fill="#2F2E41"/>
<path d="M246.714 240.232C246.63 240.095 244.653 236.789 243.967 229.924C243.338 223.625 243.742 213.008 249.241 198.199C259.659 170.143 246.841 147.506 246.71 147.28L247.342 146.913C247.375 146.97 250.683 152.742 252.637 161.932C255.219 174.116 254.278 186.785 249.927 198.454C239.527 226.462 247.259 239.72 247.338 239.851L246.714 240.232Z" fill="#3F3D56"/>
<path d="M242.64 145.633C245.264 145.633 247.391 143.503 247.391 140.876C247.391 138.249 245.264 136.119 242.64 136.119C240.017 136.119 237.89 138.249 237.89 140.876C237.89 143.503 240.017 145.633 242.64 145.633Z" fill="#373063"/>
<path d="M257.624 163.197C260.248 163.197 262.375 161.067 262.375 158.44C262.375 155.813 260.248 153.683 257.624 153.683C255 153.683 252.873 155.813 252.873 158.44C252.873 161.067 255 163.197 257.624 163.197Z" fill="#3F3D56"/>
<path d="M247.391 174.907C250.015 174.907 252.142 172.777 252.142 170.15C252.142 167.523 250.015 165.393 247.391 165.393C244.767 165.393 242.64 167.523 242.64 170.15C242.64 172.777 244.767 174.907 247.391 174.907Z" fill="#373063"/>
<path d="M259.817 184.787C262.441 184.787 264.568 182.657 264.568 180.03C264.568 177.403 262.441 175.273 259.817 175.273C257.193 175.273 255.066 177.403 255.066 180.03C255.066 182.657 257.193 184.787 259.817 184.787Z" fill="#373063"/>
<path d="M243.737 200.156C246.361 200.156 248.488 198.026 248.488 195.399C248.488 192.771 246.361 190.642 243.737 190.642C241.113 190.642 238.986 192.771 238.986 195.399C238.986 198.026 241.113 200.156 243.737 200.156Z" fill="#3F3D56"/>
<path d="M249.584 240.407C249.584 240.407 244.833 228.698 259.086 219.916L249.584 240.407Z" fill="#3F3D56"/>
<path d="M243.741 240.195C243.741 240.195 241.579 227.743 224.844 227.85L243.741 240.195Z" fill="#3F3D56"/>
<path d="M68 126C68 108.327 53.6731 94 36 94C18.3269 94 4 108.327 4 126C4 143.673 18.3269 158 36 158C53.6731 158 68 143.673 68 126Z" fill="#BEBEBE"/>
<path d="M54.67 126C54.67 115.691 46.3127 107.333 36.0034 107.333C25.6941 107.333 17.3367 115.691 17.3367 126C17.3367 136.309 25.6941 144.667 36.0034 144.667C46.3127 144.667 54.67 136.309 54.67 126Z" fill="white"/>
<path d="M36.0034 107.333C32.3115 107.333 28.7025 108.428 25.6328 110.479C22.563 112.53 20.1705 115.446 18.7576 118.856C17.3448 122.267 16.9752 126.021 17.6955 129.642C18.4157 133.263 20.1936 136.589 22.8041 139.199C25.4147 141.81 28.7407 143.588 32.3617 144.308C35.9828 145.028 39.7359 144.658 43.1469 143.246C46.5578 141.833 49.4731 139.44 51.5242 136.37C53.5753 133.301 54.6701 129.692 54.6701 126C54.6701 121.049 52.7035 116.301 49.2027 112.801C45.702 109.3 40.9542 107.333 36.0034 107.333ZM35.5959 113.054H39.6154C39.6977 113.055 39.7788 113.074 39.8523 113.11C39.926 113.147 39.9901 113.2 40.0399 113.266C40.0895 113.331 40.1235 113.407 40.1389 113.488C40.1543 113.569 40.1509 113.652 40.1288 113.731L36.971 124.493L39.9343 123.587L39.2997 125.742L36.3067 126.613L34.3654 133.168H44.7503C44.8327 133.168 44.9137 133.188 44.9872 133.225C45.0607 133.262 45.1247 133.315 45.1741 133.381C45.2236 133.447 45.257 133.523 45.2721 133.604C45.2871 133.685 45.2832 133.769 45.2606 133.848L44.3552 136.959C44.3119 137.107 44.2218 137.237 44.0984 137.329C43.975 137.422 43.825 137.472 43.6708 137.472H27.8104L30.4905 128.416L27.5256 129.318L28.179 127.201L31.1501 126.299L34.9176 113.574C34.9589 113.425 35.0477 113.294 35.1704 113.2C35.293 113.106 35.443 113.055 35.5975 113.054H35.5959Z" fill="#BEBEBE"/>
<path d="M129 47C129 29.3269 114.673 15 97 15C79.3269 15 65 29.3269 65 47C65 64.6731 79.3269 79 97 79C114.673 79 129 64.6731 129 47Z" fill="#7872B2"/>
<path d="M96.6675 54.0302L87.6666 48.7138L96.6657 61.4L105.674 48.7138L96.6631 54.0293H96.6675V54.0302ZM96.8044 32.0667L87.8 47.0062L96.8017 52.3271L105.804 47.0115L96.8035 32.0667H96.8044Z" fill="white"/>
<path d="M239 47C239 29.3269 224.673 15 207 15C189.327 15 175 29.3269 175 47C175 64.6731 189.327 79 207 79C224.673 79 239 64.6731 239 47Z" fill="#2D77C7"/>
<path d="M205.156 38.0572V36.6205C205.156 36.2575 205.301 35.9094 205.559 35.6527C205.817 35.3959 206.167 35.2518 206.532 35.2518C206.897 35.2518 207.247 35.3959 207.505 35.6527C207.763 35.9094 207.908 36.2575 207.908 36.6205V37.9601C208.995 38.0381 210.029 38.4555 210.863 39.1528C211.697 39.8501 212.289 40.7915 212.553 41.8429C212.6 42.0514 212.563 42.2698 212.45 42.4513C212.337 42.6328 212.157 42.7629 211.948 42.8137H211.031C210.736 42.8122 210.447 42.7275 210.198 42.5694C209.95 42.4113 209.751 42.1863 209.626 41.9206C209.316 41.3884 208.858 40.9568 208.308 40.6778C207.757 40.3987 207.137 40.2842 206.522 40.3481C204.571 40.3481 203.4 41.5518 203.4 42.6389C203.4 43.7262 204.317 44.3668 206.269 44.8522L208.22 45.2794C211.597 45.9977 213.021 47.4149 213.021 49.8806C213.001 51.206 212.462 52.4713 211.517 53.4069C210.573 54.3425 209.299 54.8744 207.967 54.8895V56.5396C207.967 56.9027 207.822 57.2508 207.564 57.5075C207.306 57.7642 206.956 57.9084 206.591 57.9084C206.226 57.9084 205.876 57.7642 205.618 57.5075C205.36 57.2508 205.215 56.9027 205.215 56.5396V54.9089C204.036 54.891 202.897 54.4849 201.975 53.7543C201.054 53.0235 200.402 52.0094 200.121 50.8707C200.104 50.7827 200.105 50.6922 200.123 50.6045C200.141 50.5168 200.177 50.4336 200.228 50.3596C200.279 50.2856 200.344 50.2224 200.419 50.1734C200.494 50.1245 200.579 50.091 200.667 50.0747H201.819C202.069 50.0765 202.313 50.1486 202.524 50.2825C202.735 50.4165 202.903 50.6069 203.009 50.8319C203.369 51.4247 203.89 51.9048 204.511 52.2171C205.132 52.5296 205.829 52.6618 206.522 52.5986C208.474 52.5986 209.977 51.4337 209.977 50.2494C209.977 49.0651 209.118 48.3663 207.03 47.8808L204.883 47.3761C201.819 46.7354 200.375 45.2017 200.375 42.8525C200.427 41.6039 200.946 40.4198 201.831 39.5325C202.715 38.6453 203.902 38.1191 205.156 38.0572ZM189.328 46.5218C189.331 42.935 190.469 39.4402 192.581 36.5336C194.694 33.627 197.674 31.4564 201.097 30.3302C201.221 30.2865 201.354 30.2733 201.485 30.2916C201.615 30.3099 201.739 30.3592 201.846 30.4355C201.954 30.5117 202.041 30.6125 202.101 30.7294C202.16 30.8462 202.191 30.9757 202.19 31.1068V31.5534C202.189 31.9121 202.081 32.2623 201.88 32.5597C201.678 32.8571 201.392 33.088 201.058 33.223C198.403 34.289 196.129 36.12 194.527 38.481C192.926 40.842 192.07 43.6252 192.07 46.4733C192.07 49.3215 192.926 52.1046 194.527 54.4656C196.129 56.8266 198.403 58.6576 201.058 59.7237C201.393 59.862 201.68 60.0964 201.882 60.3971C202.083 60.6978 202.19 61.0512 202.19 61.4127V61.8204C202.19 62.0521 202.097 62.2743 201.933 62.4381C201.768 62.602 201.544 62.694 201.311 62.694H201.038C197.629 61.5589 194.665 59.3871 192.563 56.4852C190.462 53.5833 189.331 50.0981 189.328 46.5218ZM223.716 46.5218C223.72 50.099 222.593 53.5868 220.495 56.4922C218.397 59.3978 215.435 61.5739 212.026 62.7134C211.889 62.7594 211.743 62.7725 211.6 62.7514C211.457 62.7305 211.32 62.6762 211.202 62.5929C211.084 62.5096 210.988 62.3996 210.921 62.2721C210.854 62.1446 210.818 62.0031 210.816 61.8592V61.5291C210.826 61.1602 210.941 60.8017 211.149 60.4957C211.356 60.1896 211.647 59.9488 211.987 59.8013C214.636 58.7322 216.904 56.901 218.501 54.5423C220.098 52.1835 220.951 49.4044 220.951 46.5607C220.951 43.7169 220.098 40.9379 218.501 38.5791C216.904 36.2204 214.636 34.3892 211.987 33.3201C211.64 33.1741 211.343 32.9315 211.132 32.6214C210.921 32.3114 210.804 31.9472 210.797 31.5728V31.2815C210.797 30.7768 211.206 30.3691 211.714 30.3691H212.007C215.413 31.5031 218.375 33.6721 220.476 36.57C222.577 39.4681 223.71 42.9489 223.716 46.5218Z" fill="white"/>
<path d="M283 94H283C265.327 94 251 108.327 251 126V126C251 143.673 265.327 158 283 158H283C300.673 158 315 143.673 315 126V126C315 108.327 300.673 94 283 94Z" fill="#F5932F"/>
<path d="M288.5 126.351C289.837 126.007 290.828 125.097 291.053 123.264C291.364 120.758 289.43 119.463 286.809 118.633L287.47 115.668C287.473 115.659 287.48 115.652 287.482 115.642C287.532 115.416 287.39 115.192 287.164 115.141L285.916 114.862C285.807 114.838 285.694 114.858 285.6 114.917C285.506 114.977 285.44 115.071 285.416 115.18L285.406 115.178L284.759 118.082C284.214 117.96 283.655 117.847 283.1 117.735L283.745 114.844C283.749 114.832 283.758 114.823 283.76 114.81C283.811 114.584 283.669 114.36 283.443 114.309L282.195 114.03C282.086 114.006 281.972 114.026 281.879 114.085C281.785 114.145 281.719 114.239 281.694 114.348L281.694 114.349L281.684 114.347L281.016 117.339C280.566 117.248 280.123 117.159 279.694 117.063L279.696 117.053L276.84 116.414L276.839 116.419C276.785 116.407 276.73 116.405 276.675 116.415C276.621 116.424 276.569 116.444 276.523 116.474C276.476 116.503 276.436 116.542 276.404 116.587C276.373 116.632 276.35 116.683 276.338 116.737L276.029 118.12C275.978 118.346 276.121 118.57 276.347 118.621H276.349L276.347 118.627C276.347 118.627 277.883 118.939 277.851 118.96C278.69 119.148 278.855 119.696 278.84 120.134L277.976 124.01L277.973 124.025L276.761 129.454C276.666 129.71 276.416 130.097 275.83 129.967C275.852 129.996 274.325 129.63 274.325 129.63L274.324 129.632C274.322 129.631 274.32 129.629 274.317 129.629C274.121 129.585 273.933 129.691 273.852 129.867L273.835 129.862L273.08 131.47L273.089 131.474C273.084 131.488 273.073 131.5 273.07 131.516C273.021 131.733 273.154 131.945 273.365 132.006L273.362 132.012L276.057 132.613C276.559 132.725 277.05 132.844 277.534 132.955L276.859 135.987L276.86 135.987C276.809 136.213 276.952 136.437 277.178 136.488L278.426 136.767C278.534 136.791 278.648 136.771 278.742 136.711C278.836 136.652 278.902 136.557 278.926 136.449L278.927 136.449L279.595 133.454C280.16 133.592 280.709 133.719 281.246 133.838L280.58 136.819L280.581 136.819C280.531 137.045 280.673 137.269 280.899 137.319L282.147 137.598C282.256 137.622 282.369 137.602 282.463 137.543C282.557 137.483 282.623 137.389 282.647 137.28L282.648 137.28L282.65 137.28L283.326 134.254C286.852 134.83 289.484 134.497 290.516 131.295C291.347 128.717 290.37 127.266 288.5 126.351ZM282.606 120.18C283.775 120.44 287.53 120.888 286.986 123.328C286.463 125.667 282.852 124.575 281.683 124.315L282.606 120.18ZM280.2 130.96L281.218 126.401C282.622 126.715 287.113 127.293 286.515 129.975C285.942 132.546 281.604 131.272 280.2 130.96Z" fill="white"/>
</svg>
